<?xml version="1.0" encoding="utf-8"?>
<!-- Generator: Adobe Illustrator 16.0.0, SVG Export Plug-In . SVG Version: 6.00 Build 0)  -->
<!DOCTYPE svg PUBLIC "-//W3C//DTD SVG 1.1//EN" "http://www.w3.org/Graphics/SVG/1.1/DTD/svg11.dtd">
<svg version="1.1" id="Layer_1" xmlns="http://www.w3.org/2000/svg" xmlns:xlink="http://www.w3.org/1999/xlink" x="0px" y="0px"
	 width="595.279px" height="841.89px" viewBox="0 0 595.279 841.89" enable-background="new 0 0 595.279 841.89"
	 xml:space="preserve">
<g>
	<g>
		<path d="M108.407,233.01c0,2.474,0.948,4.666,2.853,6.568l133.051,133.043c1.898,1.902,4.085,2.854,6.562,2.854
			c2.474,0,4.658-0.947,6.562-2.854l14.276-14.271c1.901-1.9,2.854-4.092,2.854-6.568c0-2.471-0.95-4.66-2.854-6.564
			L159.507,233.009l112.207-112.204c1.9-1.903,2.853-4.089,2.853-6.566c0-2.479-0.949-4.664-2.853-6.567l-14.277-14.275
			c-1.902-1.901-4.09-2.856-6.562-2.856c-2.477,0-4.664,0.955-6.563,2.856L111.26,226.438
			C109.357,228.346,108.407,230.536,108.407,233.01z"/>
	</g>
</g>
<g>
	<g>
		<path d="M484.021,226.438L350.971,93.395c-1.899-1.901-4.09-2.856-6.564-2.856c-2.472,0-4.658,0.955-6.562,2.856l-14.277,14.275
			c-1.902,1.903-2.854,4.089-2.854,6.567s0.949,4.663,2.854,6.566L435.774,233.01L323.568,345.217
			c-1.902,1.902-2.854,4.092-2.854,6.564c0,2.477,0.949,4.666,2.854,6.568l14.277,14.271c1.9,1.904,4.089,2.854,6.562,2.854
			c2.479,0,4.665-0.951,6.563-2.854l133.051-133.045c1.901-1.902,2.852-4.094,2.852-6.566
			C486.872,230.536,485.923,228.346,484.021,226.438z"/>
	</g>
</g>
<g>
	<g>
		<path d="M581.206,578.207L448.156,445.164c-1.898-1.9-4.089-2.855-6.563-2.855c-2.473,0-4.658,0.955-6.562,2.855l-14.276,14.275
			c-1.902,1.902-2.854,4.09-2.854,6.566c0,2.479,0.95,4.664,2.854,6.566L532.96,584.777L420.754,696.984
			c-1.902,1.902-2.854,4.094-2.854,6.564c0,2.477,0.95,4.666,2.854,6.568l14.276,14.271c1.902,1.904,4.089,2.854,6.562,2.854
			c2.479,0,4.665-0.951,6.562-2.854l133.052-133.045c1.901-1.9,2.852-4.094,2.852-6.566S583.109,580.115,581.206,578.207z"/>
		<path d="M474.424,584.779c0-2.475-0.946-4.666-2.856-6.572L338.525,445.164c-1.902-1.9-4.092-2.855-6.565-2.855
			c-2.475,0-4.665,0.955-6.566,2.855l-14.274,14.277c-1.905,1.902-2.855,4.088-2.855,6.566s0.95,4.664,2.855,6.566l112.204,112.203
			L311.117,696.984c-1.905,1.902-2.855,4.094-2.855,6.564c0,2.477,0.95,4.666,2.855,6.568l14.273,14.271
			c1.902,1.904,4.093,2.854,6.566,2.854c2.475,0,4.663-0.951,6.566-2.854l133.042-133.045
			C473.478,589.443,474.424,587.251,474.424,584.779z"/>
	</g>
</g>
<g>
	<g>
		<path d="M9.799,584.777c0,2.475,0.949,4.666,2.853,6.568l133.052,133.043c1.897,1.902,4.085,2.854,6.562,2.854
			c2.474,0,4.659-0.947,6.562-2.854l14.275-14.271c1.902-1.9,2.854-4.092,2.854-6.568c0-2.471-0.95-4.66-2.854-6.562L60.899,584.777
			l112.207-112.205c1.901-1.902,2.854-4.088,2.854-6.564c0-2.479-0.95-4.664-2.854-6.566l-14.276-14.275
			c-1.903-1.9-4.091-2.855-6.562-2.855c-2.476,0-4.664,0.955-6.562,2.855L12.652,578.205C10.75,580.113,9.799,582.304,9.799,584.777
			z"/>
		<path d="M122.292,591.345l133.042,133.043c1.902,1.902,4.093,2.855,6.566,2.855c2.475,0,4.664-0.947,6.565-2.855l14.272-14.27
			c1.905-1.9,2.855-4.092,2.855-6.568c0-2.471-0.95-4.66-2.855-6.564L170.537,584.777l112.204-112.203
			c1.905-1.902,2.854-4.09,2.854-6.566c0-2.479-0.95-4.664-2.854-6.566l-14.274-14.275c-1.9-1.9-4.093-2.855-6.565-2.855
			c-2.476,0-4.664,0.955-6.565,2.855L122.292,578.205c-1.91,1.906-2.855,4.1-2.855,6.572
			C119.436,587.25,120.38,589.443,122.292,591.345z"/>
	</g>
</g>
</svg>
