<?xml version="1.0" encoding="utf-8"?>
<!-- Generator: Adobe Illustrator 16.0.0, SVG Export Plug-In . SVG Version: 6.00 Build 0)  -->
<!DOCTYPE svg PUBLIC "-//W3C//DTD SVG 1.1//EN" "http://www.w3.org/Graphics/SVG/1.1/DTD/svg11.dtd">
<svg version="1.1" id="Layer_1" xmlns="http://www.w3.org/2000/svg" xmlns:xlink="http://www.w3.org/1999/xlink" x="0px" y="0px"
	 width="595.28px" height="841.89px" viewBox="0 0 595.28 841.89" enable-background="new 0 0 595.28 841.89" xml:space="preserve">
<g>
	<g>
		<path d="M322.876,414.899L189.825,281.856c-1.899-1.901-4.089-2.856-6.564-2.856c-2.472,0-4.658,0.955-6.562,2.856l-14.277,14.275
			c-1.902,1.903-2.853,4.089-2.853,6.567c0,2.478,0.95,4.663,2.853,6.566L274.629,421.47L162.423,533.677
			c-1.902,1.903-2.853,4.093-2.853,6.564c0,2.477,0.95,4.667,2.853,6.569l14.277,14.271c1.902,1.904,4.089,2.854,6.562,2.854
			c2.479,0,4.665-0.951,6.563-2.854l133.051-133.044c1.902-1.902,2.852-4.094,2.852-6.567S324.778,416.807,322.876,414.899z"/>
	</g>
</g>
</svg>
