<?xml version="1.0" encoding="utf-8"?>
<!-- Generator: Adobe Illustrator 16.0.0, SVG Export Plug-In . SVG Version: 6.00 Build 0)  -->
<!DOCTYPE svg PUBLIC "-//W3C//DTD SVG 1.1//EN" "http://www.w3.org/Graphics/SVG/1.1/DTD/svg11.dtd">
<svg version="1.1" id="Layer_1" xmlns="http://www.w3.org/2000/svg" xmlns:xlink="http://www.w3.org/1999/xlink" x="0px" y="0px"
	 width="595.28px" height="841.89px" viewBox="0 0 595.28 841.89" enable-background="new 0 0 595.28 841.89" xml:space="preserve">
<g>
	<g>
		<path d="M159.569,421.471c0,2.474,0.949,4.665,2.852,6.567l133.051,133.044c1.898,1.902,4.085,2.854,6.563,2.854
			c2.473,0,4.659-0.949,6.562-2.854l14.277-14.271c1.902-1.902,2.853-4.093,2.853-6.569c0-2.472-0.95-4.661-2.853-6.564
			L210.668,421.47l112.207-112.204c1.902-1.903,2.853-4.089,2.853-6.566c0-2.479-0.95-4.664-2.853-6.567l-14.277-14.275
			c-1.903-1.901-4.09-2.856-6.562-2.856c-2.476,0-4.665,0.955-6.564,2.856L162.421,414.899
			C160.519,416.807,159.569,418.997,159.569,421.471z"/>
	</g>
</g>
</svg>
