<?xml version="1.0" encoding="utf-8"?>
<!-- Generator: Adobe Illustrator 16.0.0, SVG Export Plug-In . SVG Version: 6.00 Build 0)  -->
<!DOCTYPE svg PUBLIC "-//W3C//DTD SVG 1.1//EN" "http://www.w3.org/Graphics/SVG/1.1/DTD/svg11.dtd">
<svg version="1.1" id="Layer_1" xmlns="http://www.w3.org/2000/svg" xmlns:xlink="http://www.w3.org/1999/xlink" x="0px" y="0px"
	 width="595.279px" height="841.891px" viewBox="0 0 595.279 841.891" enable-background="new 0 0 595.279 841.891"
	 xml:space="preserve">
<g display="none">
	<path display="inline" d="M186.429,683.053c-3.691,3.692-8.307,5.538-13.383,5.538c-5.075,0-9.69-1.847-13.382-5.538
		c-7.384-7.383-7.384-19.381,0-26.765l235.343-235.343L159.664,185.602c-7.384-7.383-7.384-19.381,0-26.765
		c7.384-7.383,19.381-7.383,26.765,0l248.726,248.726c7.383,7.383,7.383,19.381,0,26.764L186.429,683.053z"/>
</g>
<g>
	<path d="M240.891,683.053c-3.691,3.692-8.307,5.538-13.383,5.538c-5.075,0-9.69-1.847-13.382-5.538
		c-7.384-7.383-7.384-19.381,0-26.765l235.343-235.343L214.126,185.602c-7.384-7.383-7.384-19.381,0-26.765
		c7.384-7.383,19.381-7.383,26.765,0l248.726,248.726c7.383,7.383,7.383,19.381,0,26.764L240.891,683.053z"/>
</g>
<g>
	<path d="M132.429,683.053c-3.691,3.692-8.307,5.538-13.383,5.538c-5.075,0-9.69-1.847-13.382-5.538
		c-7.384-7.383-7.384-19.381,0-26.765l235.343-235.343L105.664,185.602c-7.384-7.383-7.384-19.381,0-26.765
		c7.384-7.383,19.381-7.383,26.765,0l248.726,248.726c7.383,7.383,7.383,19.381,0,26.764L132.429,683.053z"/>
</g>
</svg>
